<svg xmlns="http://www.w3.org/2000/svg" width="45.806" height="45.806" viewBox="0 0 45.806 45.806"><defs><style>.a{fill:#f2fffc;}.b{fill:rgba(253,73,198,0.35);opacity:0;}.c{fill:none;stroke:#609;stroke-linecap:round;stroke-linejoin:round;stroke-width:1.667px;}</style></defs><rect class="a" width="45.806" height="45.806" rx="22.903"/><g transform="translate(13.36 13.36)"><rect class="b" width="19.086" height="19.086"/><g transform="translate(0.018 0.001)"><path class="c" d="M22.234,11.008h-.769v-.04H12.877v3.817H18.27A5.73,5.73,0,1,1,16.676,8.6l2.7-2.7a9.51,9.51,0,1,0,2.859,5.106Z" transform="translate(-3.352 -3.336)"/><path class="c" d="M5.255,8.453,8.4,10.758a5.733,5.733,0,0,1,9.137-2.14l2.709-2.707A9.559,9.559,0,0,0,5.255,8.456Z" transform="translate(-4.169 -3.335)"/><path class="c" d="M13.689,31.013a9.531,9.531,0,0,0,6.421-2.487l-2.965-2.507a5.73,5.73,0,0,1-8.859-2.641l-3.12,2.407A9.568,9.568,0,0,0,13.689,31.013Z" transform="translate(-4.13 -11.929)"/><path class="c" d="M29.39,16.706h-.771v-.039H20V20.5h5.413a5.765,5.765,0,0,1-1.957,2.667h0l2.964,2.508a9.262,9.262,0,0,0,3.156-7.09A9.606,9.606,0,0,0,29.39,16.706Z" transform="translate(-10.509 -9.074)"/></g></g></svg>