<svg xmlns="http://www.w3.org/2000/svg" width="485.858" height="499.842" viewBox="0 0 485.858 499.842"><defs><style>.a{fill:#008f71;}.b{fill:#609;}.c{fill:#fff;font-size:67px;font-family:FredokaOne-Regular, Fredoka One;}</style></defs><g transform="translate(-155 -789)"><g transform="translate(155 789)"><path class="a" d="M105.183,30.863C26.07,85.069-25.985,233.023,13.518,289.3s173.267,47.955,249.677-33.335S410.558,158.2,371.055,101.922,222.215-49.325,105.183,30.863Z" transform="matrix(0.574, 0.819, -0.819, 0.574, 266.555, 0)"/><path class="b" d="M103.668,30.221C25.336,83.6-25.8,229.887,13.606,285.739s28.7-68.687,104.253-148.889S407.23,157.368,367.82,101.516,219.545-48.745,103.668,30.221Z" transform="matrix(0.574, 0.819, -0.819, 0.574, 268.071, 0.991)"/></g><text class="c" transform="translate(287.858 1021.437)"><tspan x="0" y="0">How it </tspan><tspan x="0" y="81">Works</tspan></text></g></svg>