<svg xmlns="http://www.w3.org/2000/svg" width="118.5" height="37.619" viewBox="0 0 118.5 37.619"><defs><style>.a,.e{fill:#609;}.a{font-size:24px;font-family:FredokaOne-Regular, Fredoka One;}.b{fill:#008f71;}.c{fill:#139b7e;}.d{fill:#fff;}.f{fill:#f6f6f6;}</style></defs><text class="a" transform="translate(34.5 28.864)"><tspan x="0" y="0">Cooper</tspan></text><g transform="translate(0)"><rect class="b" width="1.562" height="5.935" transform="translate(14.156 16.844)"/><g transform="translate(12.331)"><path class="c" d="M713.437,2916l-11.108,11.109-.016.016-1.74,1.741,0,0-3.066,3.068,0,0-2.426,2.425h0l-1.374,1.374a8.413,8.413,0,0,1-2.372-4.565,9.627,9.627,0,0,1,.921-5.863,8.366,8.366,0,0,1,3.307,5.863v-9.926a15,15,0,0,1,4.378-2.405C704.616,2917.178,707.988,2917.834,713.437,2916Z" transform="translate(-691.198 -2916.001)"/><path class="c" d="M746.843,2929.513c-3.115,8.748-12.019,11.109-16.9,6.233L749.689,2916C747.855,2921.454,748.512,2924.825,746.843,2929.513Z" transform="translate(-727.449 -2916.004)"/><path class="d" d="M838.991,2992.75s1.065,4.434-.679,6.177l-1.743,1.744S839.049,2995.68,838.991,2992.75Z" transform="translate(-827.198 -2987.803)"/><path class="d" d="M754.642,3029.893s1.482,6.171-.944,8.6l-2.427,2.427S754.723,3033.97,754.642,3029.893Z" transform="translate(-747.398 -3022.551)"/><path class="d" d="M844.49,3073.376s-4.434-1.065-6.177.678l-1.743,1.743S841.561,3073.317,844.49,3073.376Z" transform="translate(-827.198 -3062.929)"/><path class="d" d="M762.3,3142.12s-6.172-1.483-8.6.943l-2.427,2.427S758.218,3142.039,762.3,3142.12Z" transform="translate(-747.398 -3127.124)"/><path class="b" d="M710.745,2997.465v9.926a8.368,8.368,0,0,0-3.307-5.864A12.047,12.047,0,0,1,710.745,2997.465Z" transform="translate(-706.391 -2992.213)"/></g><g transform="translate(0 5.413)"><path class="c" d="M510.061,3002.113c-3.52-1.254-6.053-.76-10.146-2.138h0c1.377,4.093.884,6.626,2.138,10.146,2.34,6.571,9.028,8.345,12.691,4.682h0C518.41,3011.138,516.627,3004.444,510.061,3002.113Z" transform="translate(-499.915 -2999.976)"/><path class="d" d="M618.12,3057.629s-.8,3.33.509,4.64l1.31,1.309S618.077,3059.83,618.12,3057.629Z" transform="translate(-610.274 -3053.912)"/><path class="d" d="M669.754,3085.526s-1.114,4.635.709,6.458l1.823,1.823S669.693,3088.588,669.754,3085.526Z" transform="translate(-658.491 -3080.011)"/><path class="d" d="M557.56,3118.188s3.33-.8,4.64.51l1.31,1.309S559.76,3118.144,557.56,3118.188Z" transform="translate(-553.844 -3110.341)"/><path class="d" d="M585.456,3169.823s4.636-1.114,6.458.709l1.823,1.823S588.519,3169.761,585.456,3169.823Z" transform="translate(-579.942 -3158.558)"/></g><g transform="translate(7.684 23.31)"><path class="e" d="M603.828,3298.969a7.155,7.155,0,1,1-7.154-7.155A7.154,7.154,0,0,1,603.828,3298.969Z" transform="translate(-589.518 -3291.814)"/><path class="f" d="M677.525,3343.261a3.241,3.241,0,0,0-1.631-.7l-.756-.153a1.979,1.979,0,0,1-.745-.264.51.51,0,0,1-.205-.431.585.585,0,0,1,.305-.544,1.949,1.949,0,0,1,.94-.176,4.419,4.419,0,0,1,1.02.129,6.334,6.334,0,0,1,1.107.383v-1.456a10.6,10.6,0,0,0-1.241-.257c-.121-.016-.238-.027-.357-.038v-.8h-1.332v.785a2.553,2.553,0,0,0-1.387.525,1.941,1.941,0,0,0-.663,1.581,1.778,1.778,0,0,0,.477,1.306,2.955,2.955,0,0,0,1.51.705l.687.152a2.136,2.136,0,0,1,.838.313.669.669,0,0,1-.1,1.051,1.678,1.678,0,0,1-.889.194,4.228,4.228,0,0,1-1.188-.178,6.586,6.586,0,0,1-1.275-.528v1.5a8.144,8.144,0,0,0,1.32.369c.224.042.447.073.671.094v.789h1.332v-.8a2.634,2.634,0,0,0,1.374-.515,2.066,2.066,0,0,0,.675-1.694A1.779,1.779,0,0,0,677.525,3343.261Z" transform="translate(-668.14 -3336.124)"/></g></g></svg>