<svg xmlns="http://www.w3.org/2000/svg" width="365.493" height="354.281" viewBox="0 0 365.493 354.281"><defs><style>.a{fill:#df4626;}.b{fill:#3ec0c8;}.c{fill:#f9bc1c;}.d{fill:#65a4d9;}.e{fill:#95c83d;}.f{fill:#1a924b;}.g{fill:#4cb64a;}</style></defs><g transform="translate(-5400 -2941.414)"><g transform="translate(5534.247 2941.414)"><path class="a" d="M5722.552,2941.414a2.178,2.178,0,0,1,2.184,2.179l0,23.633a2.185,2.185,0,1,1-4.37,0V2943.6A2.179,2.179,0,0,1,5722.552,2941.414Z" transform="translate(-5674.47 -2941.414)"/><path class="a" d="M5640.929,2958.477a2.179,2.179,0,0,1,1.74.864l12.107,15.786a2.186,2.186,0,1,1-3.472,2.658l-12.107-15.792a2.183,2.183,0,0,1,1.731-3.516Z" transform="translate(-5638.746 -2948.883)"/><path class="a" d="M5792.958,2958.471a2.212,2.212,0,0,1,1.328.451,2.189,2.189,0,0,1,.405,3.064l-12.112,15.8a2.183,2.183,0,1,1-3.466-2.654l12.1-15.793A2.181,2.181,0,0,1,5792.958,2958.471Z" transform="translate(-5699.987 -2948.88)"/></g><path class="b" d="M5580.894,3069.819a26.728,26.728,0,0,0-5,.492c-4.251-5.092-11.576-8.457-19.905-8.457-9.925,0-18.43,4.779-22,11.571a11.281,11.281,0,0,0-1.143-.057c-4.44,0-8.164,2.383-9.229,5.609-6.9,1.163-12.085,5.98-12.085,11.75,0,6.644,6.85,12.025,15.3,12.025.214,0,.427-.022.645-.025h53.157v-.038c.086,0,.173.006.262.006,11.553,0,20.919-7.356,20.919-16.438S5592.447,3069.819,5580.894,3069.819Z" transform="translate(-48.816 -52.717)"/><path class="b" d="M5754.486,3175.458a61.285,61.285,0,0,1,10.165.87c8.639-8.966,23.522-14.9,40.443-14.9,20.166,0,37.442,8.421,44.7,20.377.762-.064,1.536-.1,2.324-.1,9.017,0,16.583,4.2,18.748,9.884,14.029,2.046,24.551,10.534,24.551,20.7,0,11.7-13.916,21.181-31.079,21.181-.447,0-.878-.035-1.317-.041h-108v-.069c-.176.006-.351.016-.53.016-23.476,0-42.506-12.965-42.506-28.959S5731.011,3175.458,5754.486,3175.458Z" transform="translate(-136.554 -96.302)"/><path class="a" d="M5682.684,3148.157l-5.645-3.235.171-4.155v-55.516l7.551.06a75.012,75.012,0,0,1,34.627,9.1l12.189-25.6a106.05,106.05,0,0,0-46.991-11.322l-7.377-.133v-22.335a4.278,4.278,0,1,0-8.556,0v23.192l-5.957,1.236c-32.363,6.725-54.119,29.63-54.119,56.976,0,29.1,27.3,47.018,54.005,60.72l5.459,2.983.612,4.723v63.23l-7.827.539c-.976.06-1.927.126-2.951.126-20.326,0-38.23-8.342-43.224-10.915l-11.063,25.6c11.707,7.832,33.238,12.785,53.711,12.785.768,0,1.5-.065,2.223-.065l9.131-.32v21.926a4.278,4.278,0,0,0,8.556,0v-22.877l5.941-1.239c35.041-7.388,55.128-29.562,55.128-60.875C5738.279,3180.48,5708.562,3161.289,5682.684,3148.157Zm-27.18-18.844c-5.423-6.316-6.171-12.247-6.171-17.672a23.667,23.667,0,0,1,6.306-15.859l6.582-5.268,6.5-3.043-.063,53.164-6.834-4.47Zm34.825,107.578-5.98,6.659-7.138,4.663v-65.766l8.145,7.52,5.355,8.216c4.313,5.9,6.241,12.119,6.241,20.3A27.459,27.459,0,0,1,5690.328,3236.891Z" transform="translate(-89.111 -39.087)"/><path class="c" d="M5675.68,3142.269l-5.646-3.231.173-4.156v-55.517l7.549.057a75.15,75.15,0,0,1,34.626,9.1l12.19-25.595a106.088,106.088,0,0,0-46.993-11.322l-7.373-.132v-22.331a4.279,4.279,0,1,0-8.559,0v23.189l-5.957,1.236c-32.363,6.728-54.117,29.63-54.117,56.978,0,29.092,27.3,47.019,54,60.721l5.458,2.983.612,4.723V3242.2l-7.826.543c-.977.06-1.927.126-2.951.126-20.328,0-38.231-8.343-43.225-10.912l-11.064,25.6c11.708,7.831,33.238,12.784,53.712,12.784.768,0,1.5-.066,2.221-.066l9.132-.321v21.922a4.279,4.279,0,0,0,8.559,0V3269l5.938-1.239c35.042-7.387,55.129-29.561,55.129-60.872C5731.276,3174.6,5701.558,3155.407,5675.68,3142.269Zm-27.179-18.841c-5.425-6.312-6.172-12.243-6.172-17.668a23.675,23.675,0,0,1,6.307-15.865l6.582-5.262,6.5-3.049-.063,53.169-6.834-4.473Zm34.825,107.579-5.982,6.662-7.136,4.663v-65.769l8.142,7.52,5.356,8.214c4.314,5.9,6.241,12.122,6.241,20.308A27.461,27.461,0,0,1,5683.326,3231.006Z" transform="translate(-86.045 -36.512)"/><path class="d" d="M5530.421,3204.552a38.923,38.923,0,0,0-9.335,1.173,44.379,44.379,0,0,0-78.156,7.384,17.575,17.575,0,0,0-2.134-.141,17.789,17.789,0,0,0-17.207,13.324,28.527,28.527,0,0,0,5.991,56.419c.41,0,.806-.044,1.209-.06h99.146v-.085c.159,0,.323.022.486.022a39.018,39.018,0,0,0,0-78.036Z" transform="translate(-0.459 -106.904)"/><path class="e" d="M5927.441,3488.172a1.556,1.556,0,0,0-1.882-1.132l-11.243,2.79a66.514,66.514,0,0,0-13.629-18.189l5.834-7.3a1.552,1.552,0,0,0-2.427-1.936l-5.7,7.147a76.478,76.478,0,0,0-21.371-13.059l.156-8.068a1.552,1.552,0,0,0-.582-1.248,1.5,1.5,0,0,0-.932-.334,1.549,1.549,0,0,0-1.582,1.519l-.135,6.949a83.817,83.817,0,0,0-28.475-4.927c-41.63,0-75.375,29.794-75.375,66.541h150.753a59.582,59.582,0,0,0-5.181-24.239l10.638-2.632A1.555,1.555,0,0,0,5927.441,3488.172Z" transform="translate(-161.993 -221.225)"/><path class="f" d="M5480.773,3455.481l4.038-9.79a3.022,3.022,0,1,0-5.589-2.3l-4.936,11.955a104.436,104.436,0,0,0-18.687,1.86l-3.163-11.763a3.067,3.067,0,0,0-3.707-2.132,3.036,3.036,0,0,0-2.136,3.711l3.095,11.5a88.38,88.38,0,0,0-18.974,7.239l-9.019-6.914a3.049,3.049,0,0,0-2.628-.517,2.982,2.982,0,0,0-1.61,1.075,3.039,3.039,0,0,0,.563,4.248l7.032,5.388c-15.375,9.821-25.053,24.072-25.053,39.931a38.946,38.946,0,0,0,.411,5.613h149.932a38.807,38.807,0,0,0,.413-5.613C5550.756,3480.638,5519.881,3457.451,5480.773,3455.481Z" transform="translate(0 -218.893)"/><path class="g" d="M5726.338,3446.649l3.13-2.881a6.393,6.393,0,1,0-8.661-9.406l-7.65,7.038a169.855,169.855,0,0,0-22-5.858l1.9-10.88a6.4,6.4,0,0,0-12.605-2.188l-1.921,11.01a207.317,207.317,0,0,0-23.24-1.658l-5.127-9.818a6.4,6.4,0,0,0-11.333,5.931l2.161,4.144c-59.979,3.143-106.938,31.59-106.938,66.244a38.231,38.231,0,0,0,.449,5.613h235.061a38.364,38.364,0,0,0,.446-5.613C5770.007,3477.461,5752.972,3458.85,5726.338,3446.649Z" transform="translate(-58.674 -208.241)"/></g></svg>