<svg xmlns="http://www.w3.org/2000/svg" width="45.806" height="45.806" viewBox="0 0 45.806 45.806"><defs><style>.a{fill:#f2fffc;}.b{fill:rgba(253,73,198,0.35);opacity:0;}.c{fill:none;stroke:#609;stroke-linecap:round;stroke-linejoin:round;stroke-width:1.667px;}</style></defs><rect class="a" width="45.806" height="45.806" rx="22.903"/><g transform="translate(13.36 13.36)"><rect class="b" width="19.086" height="19.086"/><g transform="translate(0.795 2.377)"><path class="c" d="M18.329,2.5a8.679,8.679,0,0,1-2.5,1.217A3.563,3.563,0,0,0,9.581,6.1V6.9a8.478,8.478,0,0,1-7.157-3.6S-.757,10.452,6.4,13.633a9.255,9.255,0,0,1-5.567,1.59c7.157,3.977,15.905,0,15.905-9.145a3.568,3.568,0,0,0-.064-.66A6.133,6.133,0,0,0,18.329,2.5Z" transform="translate(-0.833 -2.491)"/></g></g></svg>